/* XPM */
static char *_4d470e684bc419adb203d2a86dd08d2sjXbsOb1bVeNHKuc[] = {
/* columns rows colors chars-per-pixel */
"64 64 44 1 ",
"  c #4F1713",
". c #501713",
"X c #501813",
"o c #511813",
"O c #521814",
"+ c #521914",
"@ c #531914",
"# c #541A14",
"$ c #551A15",
"% c #551B15",
"& c #561B15",
"* c #581C16",
"= c #581D16",
"- c #5A1D17",
"; c #591E16",
": c #5A1E17",
"> c #5B1E17",
", c #5C1F18",
"< c #5C2018",
"1 c #5F221A",
"2 c #602219",
"3 c #62221A",
"4 c #66261C",
"5 c #67271C",
"6 c #69291E",
"7 c #6B2B1F",
"8 c #6D2A1F",
"9 c #6F2B1F",
"0 c #722D20",
"q c #722E21",
"w c #722F22",
"e c #773224",
"r c #7A3323",
"t c #793526",
"y c #7C3425",
"u c #7F3827",
"i c #803726",
"p c #803928",
"a c #853C29",
"s c #863D2A",
"d c #8B3F2B",
"f c #8F432E",
"g c #92462F",
"h c #974B33",
/* pixels */
"hhhhhhhhhhhhhhhhhhhhhhhhhhhhhhhhhhhh6O6gguupttyythhhhhhhhyeytggh",
"ddddddddddddd0qddddddddddddddddddddg4O4d0dddddddddddddd00ddffedd",
"999999999999999399999999999999999r9p-.,29999e999999993399999e922",
"99999999999999993399999999999999r99y>.$099990e999992>3399999r993",
"9999999999999999993399999999rrrr999u>.-9999999r0333399933999r999",
"99999233999999999999399rrrrrr999999u$.-233333339ye3999999399r099",
"99999069000rreeerr99r009999999999320$.$99999999992e99999939e9999",
"22999999--33330099rirrr33999999933-r-.$233333333209rr99333-09999",
"993999883-$$-93399r9999rr0023333339u>.>999999999-99900-23303>,20",
"393--3339993-$-3-8999999990rr933399u- >99999999393333902330323-9",
"3-3993009999993303--3339999930r0909u-+-9999999029983389r9r9933--",
"99333933999999903339333-3->>3339rees-+>99999993993338099i9999998",
"99999223-,3339r99333333---3-3339992e<O<02999929993399999rr9999rr",
"rrrrrrrrrr0230399993393993332233320y-O-9r0rrr20233999999r9rrrr99",
"  ..    .  444.           .    ...      .   O     ..   .4.    . ",
"           ..                  ...      ..  .          4        ",
"hhhhhhhhhhhhhhhhhhhhhh,-6hhhhhhhhhhhhhhhhhhehhhhhhhhhhhghhhhhhhh",
"dddddddddddddddddddddf,-4ddddddddddddddddd0ddddddddddddddddddddd",
"999999999999999999999u$$-99999999999999909399999999999r999999999",
"333399999999999999999i$.-3399999999999990299999999999rirrrr99999",
"333399999333333330322eOO>993333999rree008000000rrrrrr9r9999rr999",
"9999339339999993**000u$$>999999>003333939999999333333-8-39999r93",
"333333-99999933993229u&O>993300r3399999399999rr993333990-999990r",
"399999933333399999022r++>93rr9999939993999930330-339999r9--9939r",
"3339992203399rrreerr0eO++0r99999993399399r0r9993r9933399r33-3999",
"99939920err0r9990893ri>$22299999999939rrr39999399rr993393r088r99",
"9999--rr9993399099330s2+-33339999999r333-9999399999r999-30330000",
"33330r3239999332309r9a$$-99332999999r$-3933339999999r00rr33-939r",
"9999r999932230000-333y2.$9999-2999r0-39999933999999939933993-339",
"999r999999rre09939990e$$$---22--338393999999939993--333999993933",
" 44  . 444. ..  .      O-4455.   4    ..                        ",
"4... 44.......  ..      +   +5  .4                              ",
"ghhgghhhhhhhhhhehhhhhhhhhhhhhhghgehehhhhhhhhhhhehhhh6-9hhhhhehhh",
"ddddddddddddddd0ddd0000dddddddddf0ddddddddddddd0dddf4-4dddf00fdd",
"9999999999999933083808933339999i9399999999999993990u>@>999929099",
"999993333999990r33088099999333rr2099999999999993999u>$>999922<99",
"993339999333r033rrr9999999999r3300999999933-333-233w-O$2--$-23-3",
"993999999err3-99899rrrrrrrrrr999*e9999323339333-900p-O-28-33233-",
"->33399re909939993333999999999993099330239999993333w$$-r8re09003",
"9999r0r9999939933999939999999999*38*333099999993999u-$223930033*",
"rrrrr9333999-333333333398080883--300999999999rr0rrrs2@$-33999r09",
"99999999933339993339993-3033--3333330err9999r993990y>.O-3399993r",
"-309999999003999933----3--3*333-03333,20rrrr9993990e..-999300000",
"92-333399992$----3393393333899-3388032--3r9rr9939930>+2rr0099999",
"99023993---23032332099330r0883308999999292999rr3229p-$>239999999",
"999993339rrr-209990233303380000e9999999r333333-8990p$.$999999999",
"      .44.  4444  ...44.        4444444 O                     ..",
"     .4.    .. .44444 ..        .........                       ",
"hhhhhgh6-9hhehhhhhhhhhhhehhhhhhhhhhhhhheehhhhhehhhhhhehhhhhhhhhh",
"ddddddg4$4f0ddddddddddd0dddddddddddddd0ddddddd0ddddddd0ddddddddd",
"9999e9i>$>0299999999993399099999099e0299099909399999993900233999",
"399r99u>O-9299999999999329999999999000999999993999999r0r0**09399",
"933r00p-$-309009999999990333390933399r999099990rrrerr9-3-rr39939",
"r90288i>O*3322223333339999990*-*999999r9eerrrr3999003-9303308393",
"9ry239i-$O*33333333333--**$$$***-33999rrr3233399999239330rrre9e3",
"9r0r33p$..99999099999999930999093-3300333rr09999992*$-8033333333",
"9r0rr-0-.>--299999999993399999999r083993333000000880rr9999999333",
"9e932ys-.>rr09rr9999933999999999r9993--393----3-3393999999999939",
"992299i$$-9999--rrr3399999999rrr99999933--333333-993999999999939",
"339902e>@>-99999$$-03999999rr999999993------33339-33999999999939",
"399930p>O-3*-3339930029999r99999999--3339399333333--399999999939",
"33--22w-.-329220999900--9r99999999-3393339999999999$399999999939",
"  ..    ..    O       444                                     . ",
"   .                                                            "
};
