/* XPM */
static char *_f7e4460a00f43ba84ad3f3792e2eaebPeGvKvZVOs7NSn8b[] = {
/* columns rows colors chars-per-pixel */
"64 64 22 1 ",
"  c #3C3C3C",
". c #434343",
"X c #4B4B4B",
"o c gray31",
"O c #505050",
"+ c #515151",
"@ c gray33",
"# c gray34",
"$ c #585858",
"% c gray35",
"& c #5A5A5A",
"* c #5B5B5B",
"= c gray36",
"- c #5D5D5D",
"; c gray37",
": c #606060",
"> c gray38",
", c gray39",
"< c gray40",
"1 c DimGray",
"2 c gray43",
"3 c #777777",
/* pixels */
"::::;;:;:;;::::::;:::::::;;;;:;*::;:::::;:;:::1:;*;;;::::,,::;;*",
":****;;;****;*;;;**;;;*;;;*#****:#**;;;;;;;;;;:;*o*;;;;;::*;;o#X",
":**;;;;*o*#**;*#*#o#;***;**;;***:**#*;**;;;;;,,;*#;;;;;;;**####X",
":*#*;*;;**;*;;;:##*;;;*;;;;;;*#X:;###****;;*:,,;##**#**;*#;###*+",
":;*;;#;**;*;;;:,,;*;;#**;;;;;***;*##*;***;*;:;*;*#;*;;;;*;;;#;;#",
":;;,:***#***;;;,:*;;*;#;**;**#;+:*#;;;;*;;;;:;;;*;;;::,;**;;**;*",
":;;:,*;#****;;;,,;*;;***;,;**;**:**#;,:,;;;:;;#;#**#,,,,*#;;;##X",
":;;#;;;;#****;;,,:**#***;:***::o;*#*:,:;;;;;;**;;##*,,,,###*#o# ",
":**;;;;###***;,,##***;;**;*#### :**#;:,;*;;;,;;;*#*;,::::;***;#*",
"2;;*;####*;::,:;**###*;****####+:*;;;;,;*;;;:**;***,,;**;;;;;;,+",
"2#*;;;*;;;;*,,,*;*;;#;*;*;;;*** :**#;*;#**;*:##*;*;:;;;*;;;;:,,*",
"2*;;;;;;;;;*:::*;;;;:,;*;;;**;##;***#;;;**#***#*;;,:;;#;;;*;;::*",
",,;;;;*;;;*#*;:;;;;;*:,:*;;;;**+:**###;;***;**###*;;;***;;;*;;:;",
"1,*;**#*;#****;****#*#;****;**#X:*####**;#;;;;*###;;;*#;#;;;;;**",
"1:*****###***#;*#**##*##****#**+;##o###*#*#**;#*#;*;*:,::****#*+",
";#X#+#+o+X**+#+#Xo+#+ XX+#+##+#X+    XXXXXX#+**+++#+o .#XXXXXXXX",
"222;;;;;:;;;;;;*;:;::;;;:::::;;*;:;*:::;;:111,;#:;::***;;;;;:::;",
":*#*;#+::;**;;;#:;;;;;**;:,;;*o#,:**;*;;*##:,,;o:;*;o#***#******",
";*;;;*#;;;;;;;;+::;;*;;#;:*;*;##;*:;;;;*#*#:,,;+;#*o**#;#;;;*;:,",
"#;;;*###;;*;;;;*1:*#;;;::*#;;**#;*##**;*****,,:#;*;#;;;;;*;*:,,,",
"##****##;**#*#;#3:##*;*;**;;;;#**;**#;;;****,,,+:;;**;;:,,,,,,,,",
"o*#***;::*##*##X*###***;**#**;*#**;:**;;;;;#,:,;;;;#,:,,,,,,,,,,",
"#:;#**#::*#**##X;#*#;;;#o##****##*;;,;;**;;:****:**;;:,:,,,,,,,,",
",,:;**:;****##oX;*##**####o##***##*;,:;;;;;:***#:;;;;#;*,,,;;:,,",
",:,,,,****#*##*X;;*#*#**#:;#;;;*##*;::;;*;*#***+:;;;*#**;,;;*;;:",
";;,,:;##*##**#**:;******;:,::*;*#;*;*;;;;***o**#:;;;****;,**;;;,",
"*;;:,;#*#******#:,;**#**;,,,:****;;*o*****;#*#*+:;:,*;;*;;*#*;;;",
"*;;,:#***##**o#+:,,:;**;;;,,;***;;#*;;;******##X;*#o;;*#;*#;;;;;",
"#**:;;;;o::,*#;*:,;;;;*;;;;;;**;;****;*;##*;**#o;**##;;***;;;;;;",
"**#;;;*****::***:;;;*;***;******;*#;****###:**#+:;***;;;***;;:#+",
"o#o;*********#*+:*;*******##************;*#;*;**:;*###*;:;#*oo:*",
"  X++#+#+#+#+#X*;#+#+X#++#+oX+#X+++#+XX#+#+++*+**+X#XX+o+XXXX oo",
"***;:::;;;::;::;;;;;;;::::::;:;#;:;:;;;;;:::::;::;;;;;;;;;*;***+",
"*o##*#####;**##;#**#**;;;*;;***X;;***###**o#o#****#*##*##oo##*o ",
";**;;;;*;##**;;:::*#****;;;;;;*#:**o###*;*;#*;;;**#****;;*##***X",
":;;;;;;;;;*;;*;,,;#;;;;*;;;;;;;*:;o##*;;;;;#*;;;;*#;#****#****#X",
";;;*#*;;;;;;;**:;;;;;;;*;;;;;*;*:#**;;*;;*;*;;***;#;;***#*;;*,+X",
";;**;::;;;:;;;***;;;;*;#;*;;*;*+:**;;;;**;******;;*;:;**;**::,:.",
";*****;;;;;:;;**;;;;***;*;;;,,:X;#**;**;;;;;;;;;;;;;,**;;;;;;**o",
"2;#**;;;;;;:**o****;;*;;;**;,,,X;#*#;;;;;;;*;*;;;*;#,*;*;;*;*** ",
":***;;*;*;;*;*****;;*;;;;*#:,,:o;*;;;;;;:,;;*;;*;;;#o**;;******X",
";*#***#***;;:;;**:,,:;;;:**#:;#X;*;;;;;;,,,,*;*;*:*###*#*;***;;X",
":*##;,;;;;*;;:;**:,,:*;;;;*;;**X;*;*;;;:,,,,::;;;:;;;;;*;;;;;;;#",
":**#*,,::*;;;;;**#,,*#;;**#***#X:***;;;;;;;;;;;;;;**;;;;;**;;**X",
";**#**:,,;;;;****;,,;;;;;;;;****;;*;;;;;;;;;;;;;;;*;;;;********X",
";*****;,,;;;;;;;*;,,;;;;*;;*:;;*:*;*;;*;;;;;;;**;;**:,#**#***#*+",
":;******:;*;;;;;;::,:;;;*;,::,:;:;;****;;;**;*#*#**;#:#*#o##oo# ",
"+XX#+#XX#*+ +***#;#o*##+XX##o*+#*++#+#+#*+#+##+X XXXX..X        ",
";;;;;:;:1122111;;;:,11:::;:;12:;:::;;;::112211;#;;:;313;;*******",
":*##**;:,,,,,,:#;#**,,;;*;*;,,;;;*;;*#;:,,,:,:*#;;;:,,:;*o#***##",
",:*;;:;;::,:,,:;:;*;,,,;;;;*:,:;;;;;***;*:;;:,;+:**:,,:;##;;,,:,",
",;;;;;;;;#;*,,:*;;*;,,,;;*;*;;:;;;;::****;;;;;*+:*;,,,,:#;;:,,,,",
",;***#;;;;**;,,;::;,,,;;;;**;;;**;;;;;;;*;;**#*#:;;;**;;;;;:,,,,",
":;**#**;##**#::*,,,,,,;;;****;**;;;**;**;;*;;;*+:;;;;**;#;;;,,:;",
",;*****;oo;**#,*1,,,,,;;;;*****;*;*#*;*;;,*;*;;#:;;;;##*#*;;:*;*",
",,;*#*;*:##;####1,,,,,,;;*;****:******;*;:*;;;*#:;;;;;*##o*#;;**",
",:,:;***#:***#*#,,,,,,;;;;:::***;*;**;;;,,,;;;*o2+**;**#oo#**;;#",
"**;**;###***##**2:,:;;;;;;;;;**;;;*;**;*::,:;*#o*+::#**##*###*##",
"####*###o#;;;o#+3:;;;;;;;*;#;*#*;**#**;*****;** ;#o##****#*#oo##",
"o***#*oo#o#****#1:;;;;;;***;***;;*#*##*#***;***+;##o#o*****##ooo",
"#****;;####;;**+;**;;;*;**;****;;*;####o##*****#:*#*##*****#o#oo",
"*#;#;;;##*;*;;;#:***;;;;;##;**#:****#*###******+:;#**##****;:;*#",
",::::;;#**;;;:;*;***;#*;#*****;::;**####*******#;****##***#::*##",
";**;***#++**###+##+  XXXX+#+XX###o#oXXXX#+#+XX+##+#+X X +XXooXXX"
};
